<?xml version="1.0" encoding="UTF-8"?>
<svg id="_Слой_1" data-name="Слой 1" xmlns="http://www.w3.org/2000/svg" version="1.1" viewBox="0 0 202 202">
  <defs>
    <style>
      .cls-1 {
        fill: #0d94f5;
        stroke-width: 0px;
      }
    </style>
  </defs>
  <path class="cls-1" d="M67.6.8c44.5.2,89.1.1,133.7,0,.3,44.8.3,89.5,0,134.2-22.4-.1-44.8-.2-67.2,0,0,22.2,0,44.5,0,66.7-44.6.2-89.2.4-133.8-.1,0-44.6,0-89.2,0-133.8,22.4,0,44.8-.1,67.3,0-.4,22.4,0,44.7-.1,67.1,22.2,0,44.4,0,66.6,0,0-22.4,0-44.8,0-67.3-22.2.2-44.3-.1-66.5.1,0-22.4-.2-44.8,0-67.1Z"/>
</svg>